<?xml version="1.0" encoding="UTF-8" standalone="no"?>
<svg width="175px" height="387px" viewBox="0 0 175 387" version="1.1" xmlns="http://www.w3.org/2000/svg" xmlns:xlink="http://www.w3.org/1999/xlink" xmlns:sketch="http://www.bohemiancoding.com/sketch/ns">
    <!-- Generator: Sketch 3.3.2 (12043) - http://www.bohemiancoding.com/sketch -->
    <title>gulp-wp-theme</title>
    <desc>Created with Sketch.</desc>
    <defs></defs>
    <g id="Page-1" stroke="none" stroke-width="1" fill="none" fill-rule="evenodd" sketch:type="MSPage">
        <g id="gulp-wp-theme" sketch:type="MSArtboardGroup">
            <g sketch:type="MSLayerGroup">
                <path d="M86.72,304.739 C64.146,304.739 46.703,301.348 38.315,299.327 C32.579,297.945 27.973,296.515 24.474,295.046 L35.661,314.159 L40.037,373.878 C40.037,380.573 61.305,386 87.54,386 C113.775,386 135.043,380.573 135.043,373.878 L138.508,313.509 L149.093,294.99 C145.579,296.479 140.932,297.928 135.124,299.327 C126.736,301.348 109.293,304.739 86.72,304.739 Z M87.54,114 C64.181,114 42.192,112.725 25.624,110.411 C17.417,109.265 10.924,107.913 6.325,106.395 C5.228,106.032 3.369,105.413 1.58,104.427 L20.329,287.855 C21.816,291.582 49.81,300.739 86.72,300.739 C123.647,300.739 151.652,291.573 153.113,287.849 L173.505,104.424 C171.715,105.412 169.853,106.032 168.755,106.395 C164.157,107.913 157.664,109.265 149.456,110.411 C132.888,112.725 110.899,114 87.54,114 Z M87.474,85.99 C39.425498,85.99 0.474,91.3623808 0.474,97.99 C0.474,104.617619 39.425498,109.99 87.474,109.99 C135.522502,109.99 174.474,104.617619 174.474,97.99 C174.474,91.3623808 135.522502,85.99 87.474,85.99 Z M122.212,101.497 C122.212,103.052 117.583,104.313 111.872,104.313 C106.162,104.313 101.533,103.052 101.533,101.497 C101.533,99.941 106.162,98.68 111.872,98.68 C117.583,98.68 122.212,99.941 122.212,101.497 Z" id="Cup" fill="#21759B" sketch:type="MSShapeGroup"></path>
                <path d="M122.58186,188.804388 C125.704882,194.502773 127.482066,201.042188 127.482066,207.998352 C127.482066,222.758774 119.482855,235.645477 107.588342,242.58045 L119.808248,207.248676 C122.09071,201.540873 122.850745,196.976891 122.850745,192.918658 C122.850745,191.445677 122.75374,190.078649 122.58186,188.804388 L122.58186,188.804388 Z M92.9875556,189.239972 C95.3962192,189.1133 97.5666063,188.859954 97.5666063,188.859954 C99.7223955,188.604725 99.4681084,185.436497 97.3113774,185.562699 C97.3113774,185.562699 90.8308246,186.071273 86.6473316,186.071273 C82.716242,186.071273 76.1104293,185.562699 76.1104293,185.562699 C73.9527565,185.436497 73.6998821,188.73234 75.8566131,188.859954 C75.8566131,188.859954 77.8975022,189.1133 80.0532914,189.239972 L86.2861498,206.319115 L77.5292569,232.578022 L62.960492,189.239972 C65.3710391,189.1133 67.5390718,188.859954 67.5390718,188.859954 C69.6934483,188.604725 69.4391612,185.436497 67.283372,185.562699 C67.283372,185.562699 60.8042319,186.071273 56.620268,186.071273 C55.8696502,186.071273 54.9848255,186.052908 54.045376,186.02277 C61.1993187,175.161887 73.4955107,167.989579 87.4737645,167.989579 C97.8891742,167.989579 107.37314,171.971997 114.490823,178.493989 C114.318473,178.48363 114.150361,178.461968 113.972831,178.461968 C110.042683,178.461968 107.254001,181.885425 107.254001,185.562699 C107.254001,188.859954 109.156445,191.649578 111.184149,194.946362 C112.705634,197.611196 114.482818,201.034183 114.482818,205.980537 C114.482818,209.404465 113.165705,213.378407 111.438436,218.91433 L107.4466,232.247919 L92.9875556,189.239972 Z M87.4737645,248.010421 C83.5464422,248.010421 79.7561523,247.434508 76.1707047,246.380158 L88.1763503,211.498095 L100.473484,245.19066 C100.554479,245.388439 100.65384,245.570678 100.759793,245.742086 C96.6012573,247.20612 92.1328686,248.010421 87.4737645,248.010421 L87.4737645,248.010421 Z M47.464992,207.998352 C47.464992,202.197781 48.709115,196.691525 50.9294178,191.715975 L70.0146034,244.00587 C56.6668873,237.52155 47.464992,223.834785 47.464992,207.998352 L47.464992,207.998352 Z M42.974,207.998352 C42.974,232.536111 62.936476,252.500471 87.4737645,252.500471 C112.010582,252.500471 131.974,232.536111 131.974,207.998352 C131.974,183.461534 112.010582,163.499529 87.4737645,163.499529 C62.936476,163.499529 42.974,183.461534 42.974,207.998352 Z" id="wordpress-logo-simplified-cmyk" fill="#FFFFFF" sketch:type="MSShapeGroup"></path>
                <path d="M103.626755,100.251994 C103.575489,100.333729 103.549,100.417189 103.549,100.502 C103.549,101.509 107.276,102.324 111.872,102.324 C116.469,102.324 120.195,101.509 120.195,100.502 L131.066,56.424 L174.299046,10.779239 C174.313162,10.7653131 174.326816,10.7509015 174.34,10.736 C175.255,9.701 173.398,6.498 170.317,3.751 C167.236,1.004 163.909,0.074 162.875,1.12 C162.867271,1.12782283 162.859733,1.13575616 162.852383,1.14379912 L116.725,49.682 L103.626755,100.251994 Z" id="Straw" fill="#21759B" sketch:type="MSShapeGroup"></path>
            </g>
        </g>
    </g>
</svg>